<svg xmlns="http://www.w3.org/2000/svg" width="640" height="420" viewBox="0 0 214 150" role="img" aria-label="Ilustración visual de ipamorelin">
  <defs>
    <linearGradient id="bg" x1="0" y1="0" x2="1" y2="1"><stop offset="0" stop-color="#ffffff"/><stop offset="1" stop-color="#DDF4EE"/></linearGradient>
    <linearGradient id="line" x1="0" y1="0" x2="1" y2="0"><stop offset="0" stop-color="#0E7C66"/><stop offset="1" stop-color="#14B8A6"/></linearGradient>
    <filter id="shadow" x="-20%" y="-20%" width="140%" height="140%"><feDropShadow dx="0" dy="10" stdDeviation="10" flood-color="#0A4A3E" flood-opacity=".15"/></filter>
  </defs>
  <rect width="214" height="150" rx="20" fill="url(#bg)"/>
  <circle cx="174" cy="28" r="44" fill="#14B8A6" opacity=".10"/>
  <circle cx="44" cy="132" r="40" fill="#0E7C66" opacity=".08"/>
  <g filter="url(#shadow)">
    <path d="M62 78 C70 60 94 52 112 66 C90 68 76 78 68 94" fill="#fff" stroke="#0E7C66" stroke-width="2.4" stroke-linecap="round" stroke-linejoin="round" opacity=".96"/>
    <path d="M28 112 C58 80 90 144 120 104 S164 86 184 118" fill="none" stroke="url(#line)" stroke-width="4.8" stroke-linecap="round"/>
    <circle cx="54" cy="112" r="4.5" fill="#14B8A6" opacity=".95"/><circle cx="86" cy="120" r="4.5" fill="#14B8A6" opacity=".95"/><circle cx="120" cy="104" r="4.5" fill="#14B8A6" opacity=".95"/><circle cx="154" cy="100" r="4.5" fill="#14B8A6" opacity=".95"/>
  </g>
  <g opacity=".34" stroke="#0A4A3E" stroke-width="1.3" stroke-linecap="round">
    <path d="M24 34H48"/><path d="M160 126H188"/><path d="M34 46H70"/><path d="M144 116H174"/>
  </g>
</svg>