<svg xmlns="http://www.w3.org/2000/svg" width="640" height="420" viewBox="0 0 214 150" role="img" aria-label="Ilustración visual de kpv">
  <defs>
    <linearGradient id="bg" x1="0" y1="0" x2="1" y2="1"><stop offset="0" stop-color="#ffffff"/><stop offset="1" stop-color="#FFF4D7"/></linearGradient>
    <linearGradient id="line" x1="0" y1="0" x2="1" y2="0"><stop offset="0" stop-color="#7A5A12"/><stop offset="1" stop-color="#D8A22A"/></linearGradient>
    <filter id="shadow" x="-20%" y="-20%" width="140%" height="140%"><feDropShadow dx="0" dy="10" stdDeviation="10" flood-color="#3F3210" flood-opacity=".15"/></filter>
  </defs>
  <rect width="214" height="150" rx="20" fill="url(#bg)"/>
  <circle cx="174" cy="28" r="44" fill="#D8A22A" opacity=".10"/>
  <circle cx="44" cy="132" r="40" fill="#7A5A12" opacity=".08"/>
  <g filter="url(#shadow)">
    <path d="M105 54 L158 76 L150 116 C144 140 124 154 105 160 C86 154 66 140 60 116 L52 76Z" fill="#fff" stroke="#7A5A12" stroke-width="2.4" stroke-linecap="round" stroke-linejoin="round" opacity=".96"/>
    <path d="M30 126 C60 100 90 104 116 126 S158 152 184 122" fill="none" stroke="url(#line)" stroke-width="4.8" stroke-linecap="round"/>
    <circle cx="82" cy="96" r="4.5" fill="#D8A22A" opacity=".95"/><circle cx="105" cy="88" r="4.5" fill="#D8A22A" opacity=".95"/><circle cx="128" cy="96" r="4.5" fill="#D8A22A" opacity=".95"/><circle cx="105" cy="124" r="4.5" fill="#D8A22A" opacity=".95"/>
  </g>
  <g opacity=".34" stroke="#3F3210" stroke-width="1.3" stroke-linecap="round">
    <path d="M24 34H48"/><path d="M160 126H188"/><path d="M34 46H70"/><path d="M144 116H174"/>
  </g>
</svg>