<svg xmlns="http://www.w3.org/2000/svg" width="640" height="420" viewBox="0 0 214 150" role="img" aria-label="Ilustración visual de retatrutide">
  <defs>
    <linearGradient id="bg" x1="0" y1="0" x2="1" y2="1"><stop offset="0" stop-color="#ffffff"/><stop offset="1" stop-color="#E8F7FA"/></linearGradient>
    <linearGradient id="line" x1="0" y1="0" x2="1" y2="0"><stop offset="0" stop-color="#0B6E7A"/><stop offset="1" stop-color="#39B8D0"/></linearGradient>
    <filter id="shadow" x="-20%" y="-20%" width="140%" height="140%"><feDropShadow dx="0" dy="10" stdDeviation="10" flood-color="#073D46" flood-opacity=".15"/></filter>
  </defs>
  <rect width="214" height="150" rx="20" fill="url(#bg)"/>
  <circle cx="174" cy="28" r="44" fill="#39B8D0" opacity=".10"/>
  <circle cx="44" cy="132" r="40" fill="#0B6E7A" opacity=".08"/>
  <g filter="url(#shadow)">
    <path d="M76 72 A22 22 0 1 0 76.1 72 M122 72 A22 22 0 1 0 122.1 72 M99 112 A22 22 0 1 0 99.1 112" fill="#fff" stroke="#0B6E7A" stroke-width="2.4" stroke-linecap="round" stroke-linejoin="round" opacity=".96"/>
    <path d="M26 122 C54 88 78 90 101 120 C126 154 154 150 184 110" fill="none" stroke="url(#line)" stroke-width="4.8" stroke-linecap="round"/>
    <circle cx="76" cy="72" r="4.5" fill="#39B8D0" opacity=".95"/><circle cx="122" cy="72" r="4.5" fill="#39B8D0" opacity=".95"/><circle cx="99" cy="112" r="4.5" fill="#39B8D0" opacity=".95"/>
  </g>
  <g opacity=".34" stroke="#073D46" stroke-width="1.3" stroke-linecap="round">
    <path d="M24 34H48"/><path d="M160 126H188"/><path d="M34 46H70"/><path d="M144 116H174"/>
  </g>
</svg>