<svg xmlns="http://www.w3.org/2000/svg" width="640" height="420" viewBox="0 0 214 150" role="img" aria-label="Ilustración visual de sermorelin">
  <defs>
    <linearGradient id="bg" x1="0" y1="0" x2="1" y2="1"><stop offset="0" stop-color="#ffffff"/><stop offset="1" stop-color="#DDF4EE"/></linearGradient>
    <linearGradient id="line" x1="0" y1="0" x2="1" y2="0"><stop offset="0" stop-color="#0E7C66"/><stop offset="1" stop-color="#14B8A6"/></linearGradient>
    <filter id="shadow" x="-20%" y="-20%" width="140%" height="140%"><feDropShadow dx="0" dy="10" stdDeviation="10" flood-color="#0A4A3E" flood-opacity=".15"/></filter>
  </defs>
  <rect width="214" height="150" rx="20" fill="url(#bg)"/>
  <circle cx="174" cy="28" r="44" fill="#14B8A6" opacity=".10"/>
  <circle cx="44" cy="132" r="40" fill="#0E7C66" opacity=".08"/>
  <g filter="url(#shadow)">
    <path d="M40 126 C72 124 92 108 106 86" fill="#fff" stroke="#0E7C66" stroke-width="2.4" stroke-linecap="round" stroke-linejoin="round" opacity=".96"/>
    <path d="M30 132 C62 106 94 110 120 88 C142 70 162 76 184 56" fill="none" stroke="url(#line)" stroke-width="4.8" stroke-linecap="round"/>
    <circle cx="62" cy="122" r="4.5" fill="#14B8A6" opacity=".95"/><circle cx="96" cy="106" r="4.5" fill="#14B8A6" opacity=".95"/><circle cx="126" cy="84" r="4.5" fill="#14B8A6" opacity=".95"/><circle cx="160" cy="66" r="4.5" fill="#14B8A6" opacity=".95"/>
  </g>
  <g opacity=".34" stroke="#0A4A3E" stroke-width="1.3" stroke-linecap="round">
    <path d="M24 34H48"/><path d="M160 126H188"/><path d="M34 46H70"/><path d="M144 116H174"/>
  </g>
</svg>