<svg xmlns="http://www.w3.org/2000/svg" width="640" height="420" viewBox="0 0 214 150" role="img" aria-label="Ilustración visual de tesamorelin">
  <defs>
    <linearGradient id="bg" x1="0" y1="0" x2="1" y2="1"><stop offset="0" stop-color="#ffffff"/><stop offset="1" stop-color="#DDF4EE"/></linearGradient>
    <linearGradient id="line" x1="0" y1="0" x2="1" y2="0"><stop offset="0" stop-color="#0E7C66"/><stop offset="1" stop-color="#14B8A6"/></linearGradient>
    <filter id="shadow" x="-20%" y="-20%" width="140%" height="140%"><feDropShadow dx="0" dy="10" stdDeviation="10" flood-color="#0A4A3E" flood-opacity=".15"/></filter>
  </defs>
  <rect width="214" height="150" rx="20" fill="url(#bg)"/>
  <circle cx="174" cy="28" r="44" fill="#14B8A6" opacity=".10"/>
  <circle cx="44" cy="132" r="40" fill="#0E7C66" opacity=".08"/>
  <g filter="url(#shadow)">
    <path d="M58 122 C72 82 104 64 138 62 C130 92 118 113 90 130" fill="#fff" stroke="#0E7C66" stroke-width="2.4" stroke-linecap="round" stroke-linejoin="round" opacity=".96"/>
    <path d="M24 122 C72 92 120 95 176 120" fill="none" stroke="url(#line)" stroke-width="4.8" stroke-linecap="round"/>
    <circle cx="70" cy="96" r="4.5" fill="#14B8A6" opacity=".95"/><circle cx="104" cy="82" r="4.5" fill="#14B8A6" opacity=".95"/><circle cx="136" cy="96" r="4.5" fill="#14B8A6" opacity=".95"/><circle cx="152" cy="124" r="4.5" fill="#14B8A6" opacity=".95"/>
  </g>
  <g opacity=".34" stroke="#0A4A3E" stroke-width="1.3" stroke-linecap="round">
    <path d="M24 34H48"/><path d="M160 126H188"/><path d="M34 46H70"/><path d="M144 116H174"/>
  </g>
</svg>